<svg xmlns="http://www.w3.org/2000/svg" viewBox="0 0 100 100"><path fill="none" stroke="#000" d="M45 40c1.61-7.67 13.92-25.06 18.9-32 2.59-3.61 7.24-8.12 11.79-4.4 2.75 2.25 4.06 8.14 2.87 11.4L62 43l-17-3Zm33-15c9.19-2.32 16.48 6.31 11.98 14.98-1.94 3.73-6.39 5.79-9.98 7.61-7.45 3.77-10.52 7.35-19 7.31H43l-7-1.69c-3.21-.45-5.86.2-9-1.14-1.68-.72-8.29-5.36-10-6.67-5.36-4.08-12.07-10.89-7.83-18.19 3.63-6.24 12.31-8.16 18.83-8.93 1.82-.21 10.08-.83 7.83 3.35-1.35 2.5-5.45 2.21-7.83 2.47-3.99.43-10.36 2.72-11.75 6.92-1.19 3.57 2.33 6.13 4.77 7.98 6.8 5.17 7.95 8.87 16.98 9.15h21c3.47-.5 10.62-4.21 14-5.9 3.09-1.55 10.76-4.92 10.47-9.07-.16-2.25-3.13-3.45-5.47-8.18ZM11 46c7.71 2.62 13.19 10.48 18.04 11.69l6.96.52 7 1.68h20c12.24-.1 10.96-6.77 23-7.89-1.18 7.22-8.9 19.18-15.04 23.16-4.41 2.86-19.64 6.07-24.96 5.72-4.14-.27-16.49-3.51-20-5.72-4.53-2.85-5.16-5.04-7.86-9.07l-3.98-5.26C12.2 57.35 11.09 50.03 11 46Zm49 36.67c7.03.62 8.54 7.24 4.69 10.1-3.62 2.7-16.95 5.44-21.69 5.14-2.63-.17-14.78-3.35-16.43-4.92-2.36-2.24-1.49-7.19 1.66-8.3 1.75-.62 8.64 1.21 11.77 1.3 17.84.48 7.95-.47 20-3.32Z"/></svg>