<svg xmlns="http://www.w3.org/2000/svg" width="100.014" height="100.014" viewBox="0 0 100 100">
    <path fill="none" stroke="#000" d="m15 50-.83-33c-.42-5.45.6-6.56 5.83-7l1.17 23 1.62 10L22 56c-8.69-.16-15.51.61-17-10 6.11-.78 7.14-1.89 10 4Zm34-40c4.93.87 4.91 2.2 5 7v18l2 21h-8l1-46ZM11 20c-6.43-1.11-6.87-7.79 0-9v9Zm12.6-7.98c3.23-1.37 15.9-1.62 19.34-.59 4.67 1.39 4.44 5.97 2.46 7.55C43.83 20.23 39.98 20 38 20c-4.79.01-21.43 1.91-14.4-7.98ZM55 12h9v8c-7.8-.03-8.89.14-9-8ZM6 30c.22-6.25.8-6.91 7-6v6H6Zm41 0H32c-2.63-.01-8.05.6-8.55-3.04-.16-1.11.26-2.09 1.13-2.79C26.72 22.46 36.9 22.95 40 23c1.62.03 4.06-.04 5.4 1.02 1.74 1.38 1.53 4 1.6 5.98Zm8 0c.26-7.5 2.09-6.97 9-7v7h-9Zm-42 3.11.66 4.87c.44 12.06-16.41-2.41-4.61-4.87H13ZM44 44c-3.09 0-15.66.39-17.69-.6-2.92-1.43-2.96-7.48-.57-9.41C27.28 32.75 31.06 33 33 33c2.94-.01 11.14-.73 12.98 1.6 1.22 1.55 1.17 13.82.97 16.36-.09 1.14-.19 2.37-.94 3.3C44.4 56.25 40.33 55.99 38 56c-2.76.01-9.55.4-11.69-1.02-2.75-1.84-3.23-7.8 0-9.38 2.61-1.28 11.32.21 17.69-1.6Zm11.03-10c1.31-.22 3.61-.72 4.91-.51 5.95.94 5.16 12.05-1.82 10.06-2.51-.71-2.87-2.26-3.09-4.59V34Zm3.53 12.07c5.79-1.64 4.99 7.3 2.18 8.76-3.49 1.82-5.09-4.68-2.18-8.76ZM6 58h51c2.39 0 5.61-.13 7.83.7C68.65 60.13 79.35 71.53 83 74.83 88.61 79.91 95.48 84.6 98 92H24C19.66 82.65 6.73 72.69 6 58Zm5 3c-.29 3.49 5.97 11.95 8.14 15 2.78 3.9 5.4 8.28 9.86 10.43C33.67 88.68 43.56 88 49 88h42c-2.72-5.7-7.21-8.7-11.85-12.75C70.89 68.04 68.3 61.08 56 61H25c-5.93.07-8.19 1.6-14 0Zm45 9c1.93.02 4.17-.08 6 .6 5.04 1.85 12.23 8.99 13 14.4-2-.1-4.02-.12-5.91-.89C64.69 82.33 57.98 74.22 56 70Zm-1 15-4 .77c-11.12.46-5.53-11.43 1.59-4.46 1.16 1.15 1.65 2.32 2.41 3.69Z"/>
</svg>
