<svg xmlns="http://www.w3.org/2000/svg" viewBox="0 0 100 100"><path fill="none" stroke="#000" d="M0 41c2.87-9.21 1.42-9.8 2.98-15 2.09-7.02 5.71-11.36 10.29-16.82 1.8-2.14 7.87-8.39 10.97-6.13 2.5 1.81.03 5.12-1.35 6.67-4.59 5.13-7.95 7.54-10.72 14.28C10.12 28.98 9.06 37.12 7 40l12 6c.09-8.35 5.87-25.1 12.13-30.54 4.24-3.7 7.48-4.39 12.87-4.46-2.11 2.95-3.49 4.41-6 7l-4.53 5c-3.26 4.34-6.86 12.59-7.5 18-.23 1.95-.7 4.81.72 6.4 1.5 1.69 4.26 1.53 6.25 1.6v-8.87L44 29c.09 7.12 1.47 9.48 4 16-7.16 4.29-7.78 8.69 1 11 1.74-9.8 6.05-20.78 13.05-27.98 4.2-4.31 9.17-7.71 12.95-1.02-10.3 3.56-14.05 10.88-17.63 20.58C55.4 52.94 54.57 57.95 61 60c-5.05-10.76 6.85-33.83 20-31l-7.52 8.91C69.21 43.28 65.22 53.14 65 60l-3 2h6c.04-11.31 4.06-19.26 12.05-27.15C84.86 30.1 89.36 27.43 95 33c-8.71 3.4-15.1 7.47-18.02 17l-2.86 12c-.33 2.52-.04 5.62-2.43 7.27-3.11 2.16-15.07-2.73-18.69-4L23.96 52.12C14.6 48.09 8.81 47.28 0 41Zm16 1c-6.91-3.4-5.35-7.79-2.88-14C16.15 20.41 21.99 9.71 31 9l-8.41 14L16 42Zm17-6c-.68-1.52-1.35-2.1-1.13-4 .58-4.93 10.02-15.36 15.13-15.8 3.67-.32 12.12 3.51 16 4.8-3.51 7.44-9.62 10.46-12 21-5.4-3.05-3.23-4.98-4.3-10-.51-2.41-1.8-4.71-2.7-7L33 36Zm44 31c.08-8.63 3.41-19.43 9.26-25.95 2.36-2.63 6.61-5.84 10.27-3.7 3.96 2.33 3.59 7.37 1.16 10.65C94.27 52.59 81.98 64.64 77 67ZM28 41h2v7h-2v-7ZM0 46l15.28 6.27L32 59.09l21.17 9.53 17.81 7.69L72 84v13l-16.17-6.64-32.79-13.64C19.41 75.26 4.61 69.01 2.85 66.7-.39 62.46 0 51.3 0 46Zm46 2c1.85 3.08 1.25 3.82-2 5l2-5Zm53 3c1.61 4.06 1.68 16.24-.56 19.99l-9.03 10.1C84.86 86.77 81.93 91.72 75 95l.6-19 7.4-9 16-16Zm-80 6L7 53c0 10.71.56 13.3 12 16V57Zm-9 0c5.59 1.23 5.81 2.55 6 8-5.52-1.49-5.8-2.45-6-8Zm18 3h-5v12l26 11 2-12-7-2 3 9-7-5c-3.12.28-3.15.57-5-2l-4 2c-5.19-5.25-6.12-5.61-3-13Zm66 5c-6.2 2.93-14.98 10.38-12 18 4.04-8.55 9.47-8.25 12-18Zm-65 1-1 1 5 3-4-4Zm16 7h-1l1 1v-1Zm20 15c.19-9.08 2.24-10.42-10-15l-1 1c.48 7.41-1.36 13.15 11 14Zm-9-10c6.18.22 6.78.82 7 7l-7-2v-5Z"/></svg>