<svg xmlns="http://www.w3.org/2000/svg" viewBox="0 0 100 100"><path fill="none" stroke="#000" d="M45 1.44C57.73-.2 72.47 7.08 80.33 17c5.59 7.05 5.56 10.38 7.06 12.85 3.12 5.14 11.77 1.75 9.44 7-1.1 2.48-4.92 3.59-6.6 7.19-.61 2.09-.2 8.35 0 10.96l-1.15 11 1.07 11v8c.97 4.01 6.2 10.07-4.15 10.91-3.43.27-9.13.06-8.28-4.93.32-1.85 2-3.66 2.25-5.98.43-4.05-2.39-10.53-6.99-11.13-4.07-.53-6.58 2.04-8.63 5.13-1.09 1.63-2.15 4.41-4.51 4.39-3.86-.02-4.28-6.08-8.31-7.28-3.39-1.01-7.59.47-9.9 3.02-1.23 1.36-2.53 4.28-4.65 4.28-3.7 0-3.5-6.36-9.98-7.26-8.46-1.17-9.03 6.52-7.59 12.85.45 1.97 2.12 4.96 1.72 6.77-.85 3.86-8.56 3.72-11.03 2.21-3.69-2.62-.55-7.71 0-11.98.18-4.75-1.47-10.21-2.11-15V55c.01-2.6.6-9.04 0-11-1.46-3.21-6.35-6.58-4.82-9.4 1.18-2.18 5.18-.85 8.25-4.75l6.34-13.83C23.19 8.15 35.88 3.2 45 1.44Zm-2.69 9.16c-3.3 2.78-2.33 7.32-2.31 11.4.04 7.33 2.23 16.27 11.94 11.99 1.6-.7 2.75-1.57 3.46-3.2 1.28-2.93 1.05-16.04-1-18.48-2.63-3.12-8.55-2.57-12.09-1.71ZM65 32.97c2.28.05 10 1.05 11.24 0 1.98-1.51.66-4.3 0-5.97-2.71-5.52-5.67-9.36-11.24-12v17.97ZM31 16c-4.35 2.47-12.47 11.46-11.14 16.69.77 3.01 8.67 3.46 10.54-.84.94-2.15.6-12.82.6-15.85Zm0 53V51c-.01-6.82.06-9.61-7.98-8.94-7.53.62-4.68 8.77-4.19 13.94.58 6.04-1.93 14.17 7.17 13.78l5-.78Zm9-27v16c.04 2.96.14 7.11 2.09 9.54 2.59 3.18 9.64 3.1 12.31 0 2.34-2.66 1.93-15.72 1.49-19.52-.22-1.97-.58-3.65-2.32-4.85C51.12 41.49 43.19 42 40 42Zm26.44.57C63.47 45.33 64.98 50.15 65 54c.05 10.78-1.53 12.95 7 15.16 1.51.33 3.2.71 4.71 0C79.56 67.99 79 63.57 79 61c.01-3.25.65-15.29-1.02-17.4-1.99-2.51-8.8-1.7-11.54-1.03Z"/></svg>