<svg xmlns="http://www.w3.org/2000/svg" viewBox="0 0 100 100"><path fill="none" stroke="#000" d="M47 2c5.14 2.6 5.94 11.69 6 17l-3-4-5 4 2-17ZM17 9l6.26 7.74L38 27c.22-.62.16-1.37 1-2.43 2.33-2.91 17.1-7.83 22 3.43l14.86-10.45L83 10c0 4.04.67 10.6-1.6 13.95-3.55 5.23-10.66 5.56-11.34 14.05-.71 8.87 3.41 8.1 2.92 20-.16 3.88-1.22 7.74-5.98 7.39L62 64l1.83 9.09L60 85h-2l-1-6-2 2h-1l-13-2 2 8c-8.73-2.49-8.47-16.4-5-23.16-1.56.15-4.56.22-5.98 0C25.95 62.1 26.27 52.97 27.3 48c.85-4.14 3.24-6 2.55-11-.93-6.79-7.36-6.94-11.25-13C16.28 20.38 17 13.32 17 9ZM2 40c6.71.86 17.69 4.92 21 11l-10-2 18.42 27 .58 9c-4.97.06-9.23 1.15-14 2.47-1.79.49-4.71 2.04-6.38.71-2.1-1.67-.47-4.54.68-6.18 2.39-3.44 7.4-8.72 7.45-13.27.02-2.82-4.23-8.68-6.04-10.9C10.61 54.02 3.38 44.39 2 40Zm73 11 2.29-3.24 16.67-7.28L98 42c-5.18 2.87-12.74 13.66-16.1 18.91-1.86 2.91-1.99 4.89-4.9 7.09l4.59 9L88 88l-22-3 .58-9 5.49-8.17L85 49l-10 2Zm-22-2c-1.63-1.83-1.66-1.76-4-1l4 1Zm-21 8c2.74 0 10.56.62 12.26-1.6.81-1.06.65-2.18 0-3.27C41.97 48.29 35.83 49 32 49v8Zm36-8c-3.51.01-7.75-.16-10.68 2.14-2.97 2.34-1.89 5.45 1.74 5.93H68V49ZM51 60h-4l-2 8c3.99-1.4 4.01-1.4 8 0l-2-8ZM22 71c-.79 1.97-3.61 10.35-.84 11.18L29 81c-1.16-5.44-2.57-6.75-7-10Zm55 0c-5.24 1.95-6.88 4.65-8 10l10 1-2-11ZM45 89l8-1-2 12c-4.15-2.34-4.95-6.52-6-11Z"/></svg>