<svg xmlns="http://www.w3.org/2000/svg" viewBox="0 0 100 100"><path fill="none" stroke="#000" d="M27 16.48c5.57-.27 7.81.97 12 4.61 2.18 1.9 5.92 6.1 9 5.97 3.78-.17 9.18-7.43 15-9.83 5.91-2.44 18.37 1.35 22.5 6.03 2.61 2.95 3.38 6.93 3.48 10.74.44 15.88-10.24 24.67-22.26 33.2l-6.71 4.21c-5.69 4.48-7.99 11.39-11.94 11.39-2.57 0-11.28-10.22-14.07-12.41l-7-4.78L11.99 51.9c-5.98-8.59-7.81-23.28 1.05-30.6 3.57-2.95 9.47-4.06 13.96-4.82ZM27 22c-8.56.5-12.23 3.94-14.55 12-.86 3.01-1.61 4.82-.8 8 .56 2.18 2.58 6.12 3.98 7.87C18.67 53.66 29.53 62.69 34 64c-1.34-4.77-.94-5.84-6-7v-4l-5-1 2-5-6-4 2-3-3-3 5-2-5-2v-2l7-1-2-4 4-4Zm34 43c7.62-2.43 20.38-14.43 23.03-22 3.56-10.2-5.1-20.29-15.03-21l5 4-2 4 6 1v2l-5 3 6 3-6 1 4 3-1 4-6-1 3 6-6 1 1 4-5 1-2 7Zm-7-30H43c1.89 6.79 4.21 12.01-6 7v11l8-3-1 10h9c-4.25-8.67-1.34-10.06 7-8l-1-10-3 1.44c-8.33 3.03-3.3-5.45-2-8.44Z"/></svg>