<svg xmlns="http://www.w3.org/2000/svg" viewBox="0 0 100 100"><path fill="none" stroke="#000" d="M41 12c1.07-3.07.93-2.93 4-4l-4 4ZM29 38c-2.66-4.87-5.15-4.23-6.4-7.22-2.18-5.23 6.57-17.39 8.7-18.76 1.3-.84 2.29-.78 3.7-1.02-2.39 3.67-7.2 9.54-7.47 14-.36 6.09 9.56 10.12 1.47 13Zm12-24c0 3.24-.2 5.85.8 9 .63 1.99 2.63 5.34 1.15 7.34-1.88 2.55-6.32-2.57-7.39-4.05-3.4-4.68.81-10.55 5.44-12.29Zm36 0c4.74 3.43 7.47 6.37 9.41 12l2.38 9c1.08 7.34.26 9.69 9.21 10-1.43 3.84-3.07 3.91-5.19 7.05-3.77 5.6-1.71 7.53-9.81 9.95l5.39-13.73-6.65-7.31L78.69 21 77 14ZM2 32c8.99-.73 6.2-4.52 10.51-9.87C15.1 18.91 19.11 17.02 23 16c-2.59 3.49-6.02 7.44-6.31 12-.27 4.19 4.33 11.29 6.57 15 4.98 8.28 14.49 12.76 19.74 2 2.13.28 6.03 1.06 7.98.65 4.79-1.02 7.22-7.23 6.75-11.65L55 25c6.12 1.8 9.66 6.99 11.37 13 1.93 6.81-2.22 12.19 7.63 13-1.18 5.57-2.48 5.38-4.87 10.01C65.46 68.16 67.85 71.66 57 72l-1-3-1 3-9-3 4 7c6.05 2.98 5 4.68 5 11l-7.04-6.45L26 68.92l-11-5.43L5 64l4-11 11 4-11.57-8.21L5.42 40 2 32Zm63-14c7.91 2.7 10.54 9.38 12.4 17 1.7 6.91-.61 12.25 8.6 13l-6.6 15.36L70 68l2.69-9 4.11-6.77-6.49-6.37L67.79 27 65 18ZM29.05 54.74c-3.87 1.35-3.9 3.53-2.48 7.2.62 1.61 1.85 4.05 3.99 2.89 2.59-1.4 4.73-8.37-1.51-10.09ZM38 64c-.72 3.29 1.22 3.37 4 4l-4-4Zm57 13c-7.12 1.6-11.71-3.72-10.34-7.79.77-2.33 3.33-3.26 5.34-4.21l5 12Zm-14 8c-5.01-.84-14.12-5.8-8.57-11.65 1.94-2.04 4.96-2.66 7.57-3.35l1 15Zm-22-7 9-2-5 16c-5.75-2.01-4-8.74-4-14Z"/></svg>