<svg xmlns="http://www.w3.org/2000/svg" viewBox="0 0 100 100"><path fill="none" stroke="#000" d="M23 73c-1.54-4.74-5.3-19.49-4.74-24 .39-3.16 2.95-7.14 4.51-10 5.95-10.96 7.75-13.66 16.19-23 3.66-4.05 5.88-9.6 10.06-12.26C56.78-1.21 67.88 3.7 72 11c-7.41-1.33-14.67-1.37-20.96 3.56C44.33 19.81 38.61 39.43 37 48c5.96-5.95 10.23-9.88 17-14.96l6.91-4.67c4-3.18 4.92-6.73 9.13-9.36 8.22-5.15 20.3-1.2 25.96 5.99-7.73 0-12.72-.14-20 3.33C66.66 32.78 55.11 48.52 51 58c4.4-3.58 9.52-6.59 15-8.22l6-1.5c4.21-1.66 5.98-4.86 11-5.13 9.39-.5 15.53 8.36 16 16.85-4.26-2.25-9.2-5.46-14-6.01C72.28 52.52 65.71 62.62 59.94 72 51.36 85.93 45.81 96.52 28 97.82c-5.19.37-12.66-1.18-16.68-4.61C4.06 87.01-.31 67.34.1 58l2.17-17c-.64-5.03-2.53-8.72 0-14C6.13 19.16 13.01 17.07 21 17c-2.5 3.6-5.72 6.91-7.39 11-5.96 14.61.72 32.91 9.39 45Z"/></svg>