<svg xmlns="http://www.w3.org/2000/svg" viewBox="0 0 100 100"><path fill="none" stroke="#000" d="M21 10h56c-1.39 6.87-3.45 11.86-11 12H39c-2.98 0-9.24.44-11.68-1.02-3.49-2.1-5.55-7.19-6.32-10.98Zm-5 4c8.34 7.35 8.44 16.43 4 26-3.85-.9-13.31-3.61-14.13-8.09C5.24 28.42 13.67 17.02 16 14Zm64 0c5.65 1.74 8.7 7.3 11.96 12 1.21 1.75 3.13 4.27 1.91 6.49-.84 1.53-3.34 2.29-4.87 2.84L75 40c-4.44-14.51-.81-13.94 5-26Zm-8 27H33c-2.19 0-6.52.37-7.91-1.6-1.24-1.68-.37-4.56 0-6.4 1.43-6.52.97-7.87 7.91-8h38l1 16ZM5 38c4.58.49 5.89 1.18 10 3.18C25.38 46.22 25.26 50.24 29.27 60c1.88 4.57 3.93 9.1 4.73 14-5.27-2.61-7.18-6.51-10.8-11C18.45 57.12 7.75 44.44 5 38Zm64 7 23-6c-1.93 6.77-15.89 23.6-20.88 30-3.2 4.09-6.05 8.38-11.12 10 .98-11.96 5.79-22.63 9-34Zm-40 0h36l-9.02 33C54.74 82.68 53.9 88.3 49 90l-6.56-8.04L34.87 63 29 45Z"/></svg>