<svg xmlns="http://www.w3.org/2000/svg" viewBox="0 0 100 100"><path fill="none" stroke="#000" d="M48.35 3.07c7.1-1.78 8.46 11.91 3.12 14.88-3.24 1.81-6.07-2.25-6.78-4.95-1.02-3.9.94-7.36 3.66-9.93ZM11 16.7c5.51-1.25 17.15-1.51 21.94 1.64 4.72 3.11 3.91 6.29 7.28 9.35C43.4 30.56 48.01 30.07 52 30c11.74-.22 7.36-7.02 15.04-11.77C71.29 15.59 76.21 15.98 81 16c12.58.06 18.68 7.52 17.91 20-.45 7.28-4.14 15.07-11.91 16.66-5.38 1.1-10.16-1.37-14.2 3.49-1.73 2.07-5.01 8.18-5.22 10.85-.27 3.5 1.98 7.39 2.28 11 .67 8.1-5.01 16.98-12.86 19.35-2.33.71-5.56.71-8 .63-2.9-.08-4.31-.24-7-1.46C33.77 92.77 30.58 85.77 31.09 77c.41-7.08 3.32-9.12-.72-16-1.75-2.97-4.03-6.15-7.37-7.4-3.64-1.36-7.45.49-12-2.34-13.58-8.44-13.03-28.54 0-34.56ZM33 29c-1.43-2.88-2.15-4.04-5.02-5.77-6.92-4.2-16.29-1.52-19.96 5.77-2.93 5.82-.31 15.35 6 17.99 2.77 1.17 6.02 1 8.98 1.01-1.27-2.95-7.44-13.86-7.1-15.94.84-5.22 13.21-3.49 17.1-3.06Zm44 19c4.87-.02 8.79.22 12.53-3.53C98.86 35.12 91.54 19.69 78 21.2c-4.45.5-7.46 3.38-11 5.8v2l17 1-7 18ZM35 35H23c.68 2.7 2.12 7.75 5.17 8.66 4.41 1.32 6.41-5.63 6.83-8.66Zm25 0H40c-.69 9.82-6.6 13.05-6.91 17-.11 1.45.53 2.75 1.18 4 5.27 10.16 9.9 2.87 16.73 3.36L63 62l4.84-11-4.35-7L60 35Zm17 1H65c2.09 4.81 2.8 6.64 7 10l5-10ZM58 67c-7.65-1.98-8.47-2.65-16 1l8 11c4.51-3.46 6.56-6.5 8-12Zm-20 5c-1.09 2.76-1.1 5.04-.98 8 .7 18.06 26.93 17.07 27.35-1 .06-2.58-1.13-4.84-2.37-7-1.67 3.59-8.38 13.85-12.99 12.66-3.59-.92-8.85-9.5-11.01-12.66Z"/></svg>