<svg xmlns="http://www.w3.org/2000/svg" viewBox="0 0 100 100"><path fill="none" stroke="#000" d="m50 3 17 10v5H42v3c4.1 0 19.11.43 22-.59 2.31-.82 4.84-3.01 7-4.39 2.22-1.4 8.03-6.08 10.4-4.28 4.05 3.07-1.18 9.89-1.4 16.26 8.87-3.04 7.72 4.72 9.29 11 2.15 8.6-.88 13.52-.88 17 0 5.23 4.38 14.04 1.39 23.82C87.42 87.6 79.41 83.73 78 75h-3l2 7c-9.72-1.59-5.55-7.31-7.88-14-4.29-12.36-4.73-8.65-8.12-15l-3-7-1 5-5 1c3.26 3.54 4.22 4.18 5 9l-9-3 7.99 9.09L57.3 76l2.1 9-4.4 15c-1.9-.15-3.12-.09-4.91-1.01L35 87.25c-5.36-4.2-14.48-8.68-18.11-14.22-5.41-8.27-2.75-14.51.92-22.45 2.04-4.41.56-5.12 4.75-11.49C24.76 35.74 36.44 24.36 40 21c-11.84 3.83-16.89 13.1-22.75 23.42-3.89 6.87-2.62 9.41-4.82 11.86C9.55 59.48 4.89 59 1 59c.78-9.9 7.33-6.54 10-15-3.88-.89-4.32-1.04-5-5 5.96-2.03 8.64-5.65 13-10l-7-1c3.31-6.53 7.61-6.37 14-8l-4-7 6.91-2.05L39 13l-4-8c6.93.24 7.98 1.99 14 5l1-7Zm33 20c2.91-5.67 8.9-7.79 15-8-.21 6.64-4.18 10.17-10 13l-5-5Zm-5 19h-2v6h2v-6Zm7 31c-1.63-1.83-1.66-1.76-4-1l4 1Z"/></svg>