<svg width="100.014" height="100.014" viewBox="0 0 100 100" fill="#00f" xmlns="http://www.w3.org/2000/svg">
    <path fill="#000"  d="M47.18 9.02c12.6-4.51 11.64 7.32 16.13 11.29L72 25.52C81.47 32.59 85.86 40.14 86 52c.03 2.66-.21 6.54.56 9 1.21 3.89 9.64 13.9 3.13 19.26-4.3 3.54-12.13.37-15.69.9l-9 3.62c-4.4 1.4-13.3 2.31-18 2.21-11.38-.27-15.05-4.77-19-5.4-4.85-.77-14.74 2.44-17.4-3.73-2.95-6.85 3.78-12.41 5.52-16.14 1.18-2.77.26-4.91 0-7.72-.59-9.53 4.38-21.18 11.93-27.07l11.44-6.74c3.24-2.96 2.07-6.58 7.69-11.17zM26 74.89c9.14 3.61 12.81 10 26 8.52 4.07-.46 8.18-.75 12-2.36l9-4.67c3.41-.72 6.11 2.19 10.94 1.47 9.38-1.4-1.35-12.41-1.92-14.94-.69-3.04 1.28-6.77.5-11.91-1.45-9.56-4.72-16.11-12.61-21.96l-9.61-5.6c-3.41-3.02-4.22-12.76-10.13-10.78-4.56 1.52-4.25 7.72-7.48 10.58l-11.64 6.55C24.19 35.02 19.57 45.39 20.1 54c.33 3.44 1.57 6.48 0 9.83-1.41 2.68-6.42 6.69-5.7 11.06.61 3.5 8.38 4.92 11.6 0zM48 23.9c6.64-1.71 6.45.82 12.04 3.01C76.56 33.38 82.12 44.97 79.17 62c-.41 2.34-.25 5.87-1.36 7.78C76.63 71.8 65.58 77.5 63 78.52c-3.22 1.28-4.73 1.24-8 1.63-11.66 1.42-12.73.71-23-5.12-4.84-2.74-8.3-3.75-8.55-10.03-.32-7.86-1.74-15.38 1.27-23C28.67 32 39.05 28.06 48 23.9Zm6 2.1-5-1v7h5zM33 61l11.32-19c1.17-1.91 3.55-5.35 2.45-7.67-2.22-4.67-10.46 1.42-12.67 3.34C27.03 43.81 26.89 51.54 28 60Zm42-2c-1.84-10.29.19-15.2-9-22.66-1.93-1.57-7.92-5.74-9.77-1.99-1.09 2.24 1.28 5.77 2.37 7.65L70 61Zm-45-1c0-11.67 1.64-18.9 14-23-1.22 4.99-9.8 20.36-14 23Zm29-23c8.69 4.68 13.35 9.62 12 20-4.23-3.6-10.89-14.57-12-20Zm8 29L53.47 40.29 50 38 36 64ZM50 45c5.4 2.85 8.37 9.3 10 15H43ZM26.724 65.097c-.498.668-.314 1.623.406 2.573 3.83 5.08 7.97-4.1 1.81-3.67-1.285-.033-1.549.277-2.216 1.097zM73.01 64.03c-4.67 2.51-1.62 5.97.73 5.23 1.81-.58 3.51-4.14-.73-5.23zM67 68c-6.64-1.61-16.9-1.04-24-1-4.6.03-6.18-.53-8 4 9.3 4.76 26.11 8.74 32-3zm-47.903 1 1.01-.292L21 69c3.093 4.138 2.632 4.099 1.318 6.221 0 0-4.202.814-4.517-1.146-.356-2.219.035-3.8 1.296-5.075ZM41 70l20 1c-6 2.5-14.55 3.08-20-1z"/>
    <path fill="#7bdbe7" d="M46.284 83.017c-3.811-.319-6.959-1.413-11.128-3.87l-2.922-1.72c-1.938-1.143-3.552-1.986-4.918-2.57-1.642-.701-1.459-.705-2.004.038-1.218 1.658-3.177 2.593-5.446 2.599-1.708.004-3.095-.436-4.064-1.288-1.74-1.533-1.043-4.469 1.968-8.28 2.537-3.211 2.95-3.859 3.321-5.215.432-1.572.4-3.352-.116-6.374-.294-1.729-.323-2.074-.319-3.847.006-2.166.153-3.462.639-5.6 1.053-4.638 3.304-9.292 6.204-12.823.862-1.05 2.588-2.795 3.42-3.46.242-.192 3.068-1.824 6.282-3.627 6.243-3.502 6.216-3.484 7.058-4.725.495-.728 1.02-1.795 1.802-3.652.36-.856.787-1.82.95-2.142 1.123-2.229 2.754-3.461 4.608-3.483 1.182-.015 2.17.599 3.126 1.938.596.834 1.06 1.7 2.183 4.07.533 1.123 1.205 2.438 1.494 2.922 1 1.672.988 1.663 6.436 4.834 5.543 3.226 6.214 3.703 8.673 6.166 1.626 1.629 2.436 2.6 3.498 4.196 2.34 3.512 3.76 7.309 4.749 12.692.297 1.615.316 1.852.31 3.863-.004 1.95-.033 2.317-.325 4.09-.368 2.232-.483 4.122-.306 5.039.148.768.476 1.368 2.144 3.916 2.71 4.143 3.607 6.069 3.607 7.751 0 1.277-.695 2.113-2.137 2.569-1.923.607-4.456.465-6.822-.385-1.045-.375-2.926-.832-3.648-.886-1.354-.101-1.457-.061-6.351 2.482-2.473 1.285-4.905 2.49-5.405 2.677-2.06.772-4.525 1.247-9.154 1.766-3.257.365-5.736.479-7.407.339zm2.972-1.753c2.236-.135 9.206-.912 10.488-1.17 1.968-.394 3.672-1.05 6.82-2.624 5.159-2.58 9.537-5.214 11.086-6.668 1.08-1.013 1.44-2.279 1.816-6.382a63.13 63.13 0 0 1 .388-3.165c.456-2.963.57-4.42.575-7.304.004-2.864-.125-4.442-.535-6.517-1.147-5.815-3.977-10.72-8.35-14.474-3.033-2.604-6.321-4.525-11.086-6.477-1.654-.678-2.154-.929-3.798-1.908-2.63-1.565-3.352-1.792-5.47-1.714-2.15.079-2.817.272-6.052 1.749-5.48 2.502-8.5 4.079-11.082 5.788-7.732 5.118-11.253 11.36-11.7 20.741-.104 2.185-.028 4.762.282 9.516l.298 4.564c.197 3.027.919 4.812 2.592 6.414.924.886 1.774 1.434 5.043 3.255 1.558.867 3.586 1.999 4.509 2.515 6.134 3.433 8.88 4.18 14.176 3.86zm35.447-5.145c1.211-.592 1.446-2.023.696-4.25-.351-1.044-.972-2.375-1.137-2.438-.177-.068-1.978.564-2.829.993-.925.466-1.519 1.086-1.998 2.089-.504 1.054-1.111 2.7-1.04 2.815.08.128 1.72.64 2.791.87 1.187.193 2.433.183 3.517-.08zM22.5 75.766c.265-.082 1.114-1.492 1.28-2.125.249-.953-.149-1.933-1.6-3.95-.81-1.125-.819-1.134-1.435-1.342l-.62-.21-.702.204c-.628.183-.743.257-1.087.692-.834 1.056-1.176 2.105-1.176 3.614 0 1.966.362 2.656 1.606 3.063.54.177.79.196 2.074.159.804-.024 1.55-.07 1.66-.105z" />
    <path fill="#7bdbe7" d="M30.637 59.975c-1.146-.232-2.1-.436-2.117-.455-.018-.018-.099-.624-.179-1.347-.843-7.6.118-12.67 3.212-16.95 1.638-2.267 4.994-5.033 8.078-6.658 3.204-1.689 5.296-1.838 6.35-.454.558.733.653 1.517.335 2.758-.28 1.087-.716 1.958-2.319 4.623-.803 1.335-3.664 6.132-6.358 10.657a5069.014 5069.014 0 0 1-4.907 8.238c-.006.005-.949-.18-2.095-.412zm-.01-1.73c.989-.666 2.649-2.561 4.458-5.09 3.07-4.292 7.28-11.976 8.848-16.149.36-.958.845-2.681.774-2.751-.135-.135-3.457 1.14-5.058 1.942-4.401 2.203-7.06 5.011-8.569 9.051-1.029 2.756-1.483 5.877-1.592 10.936l-.06 2.818.38-.23c.21-.127.578-.364.82-.526zM29.172 68.592c-.984-.285-2.148-1.7-2.148-2.61 0-.338.066-.462.463-.872.417-.43.518-.484 1.023-.546 1.795-.221 2.994.443 2.994 1.657 0 1.5-1.185 2.704-2.332 2.37zM37.116 63.13c.546-1.058 13.018-24.188 13.07-24.24.036-.035.7.36 1.477.877l1.412.94 6.449 11.296c3.547 6.214 6.45 11.33 6.451 11.37.002.04-6.528.073-14.51.073H36.952Zm23.57-2.745a8.283 8.283 0 0 1-.165-.56c-.217-.82-.902-2.869-1.265-3.784-1.97-4.96-4.348-8.34-7.414-10.536-.742-.53-2.031-1.275-2.096-1.21-.051.051-7.43 15.876-7.489 16.06-.051.16.432.17 9.215.17 8.02 0 9.26-.02 9.214-.14zM49.812 74.987c-3.13-.346-6.52-1.176-9.83-2.407-1.212-.451-1.917-.747-3.64-1.527l-.665-.301.421-.793c.502-.945 1.017-1.557 1.596-1.896.813-.476 1.307-.504 10.268-.576 8.522-.069 11.089-.014 14.12.299 1.622.167 3.913.516 4.012.611.14.132-1.067 1.754-2.011 2.704-2.756 2.773-6.408 4.053-11.467 4.02-.926-.006-2.188-.066-2.804-.134zm5.454-1.794c1.61-.277 3.184-.68 4.674-1.2l1.218-.426-.023-.52c-.012-.286-.036-.534-.052-.55-.051-.052-21.62-1.116-21.666-1.07-.067.067 1.842 1.462 2.634 1.925 1.526.893 3.918 1.674 6.057 1.978 1.505.213 5.566.135 7.158-.137zM70.184 60.198c-.305-.393-12.257-20.448-12.631-21.195-.82-1.635-1.159-2.985-.984-3.918.095-.507.582-1.173 1.054-1.441.594-.338 1.68-.324 2.733.036 4.05 1.383 9.271 6.017 11.21 9.948 1.113 2.257 1.485 3.862 2.008 8.668.163 1.5.41 3.531.547 4.515.137.983.212 1.82.168 1.86-.045.039-.968.424-2.05.855-1.415.563-1.993.752-2.055.672zm1.386-5.38c.312-2.648.265-4.873-.147-6.905-.916-4.514-3.553-7.987-8.561-11.274-1.274-.836-4.473-2.642-4.548-2.568-.091.092.383 2.05.766 3.164 1.989 5.78 7.694 14.798 11.411 18.039.484.422.894.753.91.736.018-.018.094-.553.169-1.191zM72.26 68.618c-.684-.317-1.12-.931-1.12-1.578 0-.67.637-1.553 1.544-2.14.42-.272.43-.273.828-.117.684.267 1.198.676 1.416 1.126.321.664.241 1.192-.301 1.99-.561.825-1.513 1.114-2.368.719z" />
    <path fill="#7bdbe7" d="M45.622 87.4c-3.76-.23-7.082-.942-10.125-2.168-.723-.292-2.323-1.015-3.555-1.608-2.453-1.18-3.078-1.419-4.152-1.588-.788-.123-3.66-.074-6.658.114-5.476.344-8.712-.613-10.348-3.059-.496-.74-.972-1.905-1.202-2.936-.205-.926-.163-2.952.084-3.95.564-2.281 1.315-3.64 4.71-8.515 1.063-1.526 1.402-2.173 1.65-3.143.269-1.05.24-2.313-.105-4.697-.211-1.458-.29-2.364-.29-3.36-.003-7.364 3.01-15.628 7.915-21.705.948-1.175 2.774-3.028 3.722-3.777.375-.296 3.201-2.017 6.281-3.823 6.12-3.59 6.203-3.65 7.014-5.015.22-.372.698-1.347 1.062-2.168 1.428-3.225 2.039-4.169 3.909-6.038l1.333-1.333.986-.306c4.28-1.33 7.226-.918 9.503 1.326.937.922 1.64 2.006 2.59 3.99 1.814 3.789 2.334 4.78 2.847 5.42.29.361.631.737.76.836.129.1 2.15 1.329 4.491 2.732 2.537 1.52 4.657 2.863 5.247 3.322 7.108 5.533 10.894 11.268 12.464 18.88.486 2.357.586 3.64.677 8.633.13 7.124.067 6.84 2.507 11.34 2.608 4.81 3.491 7.215 3.599 9.801.041 1.004.016 1.44-.117 2.046-.571 2.592-2.478 4.565-5.168 5.345-1.958.568-4.075.556-8.518-.048-1.205-.164-2.695-.324-3.31-.356l-1.12-.059-4.529 1.827c-2.49 1.005-4.975 1.952-5.52 2.106-4.467 1.258-13.825 2.23-18.634 1.935zm7.696-4.583c4.66-.508 6.753-.884 8.953-1.607 1.088-.358 2.063-.821 5.794-2.75 2.468-1.277 4.64-2.384 4.827-2.46.484-.195 2.211-.168 3.02.049a89.11 89.11 0 0 1 2.19.649c2.066.635 2.88.785 4.285.786 2.4.003 4.063-.634 4.702-1.802.13-.238.166-.535.16-1.329-.005-.904-.043-1.124-.327-1.899-.591-1.615-1.165-2.646-3.249-5.837-.802-1.228-1.617-2.565-1.81-2.97l-.352-.737.005-1.606c.005-1.263.061-1.94.264-3.165.682-4.107.605-6.315-.37-10.671-1.453-6.486-4.287-11.554-8.691-15.538-2.123-1.92-2.728-2.33-7.684-5.215-3.07-1.787-4.92-2.924-5.255-3.228-.865-.788-1.312-1.553-3.342-5.714-1.186-2.432-1.877-3.486-2.71-4.141-.679-.533-1.3-.751-2.125-.747-1.17.007-2.321.526-3.255 1.469-.768.774-1.353 1.758-2.09 3.516-1.408 3.354-2.129 4.65-3.028 5.441-.245.215-3.038 1.85-6.207 3.634-4.64 2.611-5.924 3.378-6.59 3.934-3.72 3.102-7.21 8.72-8.747 14.08-.815 2.844-1.124 4.927-1.126 7.58-.001 1.7.032 2.098.319 3.798.558 3.317.56 4.939.006 6.667-.353 1.102-.866 1.905-2.661 4.167-2.577 3.245-3.413 4.922-3.411 6.841 0 1.054.195 1.571.817 2.169 1.665 1.6 5.088 1.891 7.568.645.793-.399 1.714-1.187 2.277-1.949l.38-.515.95.395c1.593.663 3.835 1.849 6.695 3.544 4.736 2.806 7.315 3.924 10.323 4.474 2.797.511 5.1.522 9.495.042z" />
    <path fill="#7bdbe7" d="M45.43 81.17c-3.249-.294-5.766-1.284-11.465-4.512-.791-.448-2.49-1.396-3.776-2.107-3.593-1.987-4.789-2.893-5.721-4.337-.911-1.411-1.285-2.716-1.437-5.015l-.294-4.455c-.43-6.51-.44-9.726-.041-12.6.8-5.767 3.136-10.517 6.945-14.122 3.368-3.188 7.052-5.413 15.051-9.09 3.779-1.737 4.683-1.997 6.922-1.996 1.756.001 2.538.262 4.733 1.582 1.573.945 2.642 1.48 4.33 2.165 10.881 4.422 17.183 11.197 19.066 20.5.462 2.287.595 3.804.59 6.768-.004 2.88-.117 4.304-.577 7.304a64.177 64.177 0 0 0-.388 3.165c-.335 3.63-.66 5.017-1.38 5.881-1.17 1.404-6.007 4.362-11.89 7.273-2.95 1.458-4.533 2.053-6.565 2.464-.773.156-5.602.73-8.26.98-1.978.186-4.684.257-5.843.152zm9.752-6.043c3.749-.38 6.761-1.698 8.997-3.936.761-.761 2.091-2.528 2.091-2.778 0-.111-.17-.158-1.217-.334-1.167-.197-2.975-.408-4.82-.562-1.836-.154-19.824-.138-21.084.019-1.067.132-1.878.537-2.4 1.197-.358.454-1.21 2-1.137 2.064.103.091 1.216.608 2.379 1.105 3.87 1.655 8.454 2.868 12.162 3.219 1.282.12 3.87.124 5.03.006zm18.527-6.32c.615-.234 1.31-1.103 1.468-1.833.197-.911-.44-1.837-1.552-2.253l-.57-.213-.518.356c-1.423.98-1.846 2.131-1.162 3.164.448.678 1.594 1.06 2.334.779zm-43.366-.256c.384-.193.92-.837 1.11-1.336.234-.614.175-1.568-.124-1.987-.119-.168-.424-.406-.678-.53-.393-.192-.614-.226-1.484-.227-1.19-.001-1.493.115-1.95.746-.525.725-.331 1.54.61 2.571.855.935 1.677 1.184 2.516.763zm35.83-5.06c0-.028-2.936-5.194-6.524-11.48l-6.523-11.428-1.364-.89c-.75-.49-1.423-.913-1.495-.941-.093-.036-2.036 3.486-6.542 11.859-3.525 6.55-6.538 12.14-6.695 12.421l-.286.511h14.714c8.093 0 14.715-.023 14.715-.051zM36.668 54c2.053-3.455 4.85-8.144 6.213-10.42 2.657-4.433 3.196-5.452 3.528-6.668.606-2.214-.451-3.855-2.48-3.848-2.024.007-5.496 1.717-8.761 4.316-3.246 2.583-5.443 5.812-6.44 9.462-.623 2.28-.885 5.223-.727 8.174.08 1.484.356 4.54.417 4.596.01.01.982.212 2.16.45 1.562.316 2.172.405 2.25.327.058-.06 1.786-2.935 3.84-6.39zm35.689 5.59c1.542-.618 2.093-.88 2.093-.999 0-.088-.087-.752-.194-1.475-.106-.723-.35-2.739-.542-4.48-.502-4.556-.851-6.295-1.645-8.186-.84-2.003-1.867-3.46-3.851-5.46-4.736-4.774-9.582-6.916-11.226-4.962-.435.516-.592 1.088-.532 1.933.068.953.357 1.832 1.048 3.188.526 1.032 12.62 21.278 12.71 21.278.025 0 .987-.377 2.139-.838zM53.513 28.936v-2.566l-1.826-.362c-1.004-.2-1.925-.386-2.045-.414l-.22-.053v5.961H53.514z" />
    <path fill="#7bdbe7" d="M29.588 56.038c.093-4.055.34-6.252.991-8.806 1.355-5.317 4.54-8.927 10.045-11.387.928-.415 3.819-1.517 3.979-1.517.049 0-.394 1.608-.616 2.24-1.382 3.916-5.478 11.475-8.804 16.247-2.183 3.131-3.765 4.859-5.277 5.764l-.381.228zM18.858 75.634c-1.29-.462-1.627-1.105-1.611-3.082.01-1.371.441-2.613 1.21-3.486.326-.37.514-.487 1.03-.642.63-.19.635-.19 1.215.006.575.195.592.212 1.462 1.429 1.902 2.66 1.991 3.243.797 5.194-.186.304-.41.583-.5.62-.088.037-.817.085-1.62.107-1.26.035-1.533.015-1.983-.146zM48.126 73.235c-2.916-.415-5.287-1.355-7.505-2.977-.583-.426-1.043-.774-1.022-.774.498.001 21.358 1.082 21.384 1.108.021.02.047.228.058.46l.02.424-.872.327c-1.274.477-3.121.967-4.728 1.253-1.222.217-1.748.255-3.896.283-1.758.022-2.762-.008-3.44-.104zM42.559 59.916c3.571-7.721 7.229-15.458 7.308-15.46.208 0 1.8 1.015 2.591 1.654 3.334 2.692 6.037 7.255 7.803 13.173l.341 1.144h-18.28zM70.197 54.836c-4.47-4.254-10.433-14.36-11.61-19.678-.107-.48-.176-.891-.155-.912.065-.065 3.041 1.62 4.235 2.397 2.909 1.894 5.065 3.889 6.495 6.011.963 1.43 1.802 3.469 2.163 5.26.258 1.277.43 3.478.356 4.576-.094 1.42-.273 3.107-.343 3.243-.045.086-.41-.201-1.141-.897z" />
    <path fill="#fff" d="M20.596 68.461c.588.195.994.63 2.011 2.156.846 1.268 1.153 2.029 1.068 2.649-.06.433-.686 1.725-1.047 2.158-.2.24-.227.244-1.823.267-1.318.02-1.693-.006-2.01-.136-2.083-2.543-1.297-7.335 1.801-7.094zM45.138 81.11c-2.476-.32-4.736-1.099-7.791-2.689-1.906-.991-8.42-4.63-9.621-5.375-2.27-1.405-3.458-2.768-4.102-4.7-.41-1.228-.474-1.887-.999-10.11-.183-2.882-.157-7.999.05-9.544.94-7.03 3.737-12.155 8.87-16.248 2.562-2.044 4.916-3.452 9.63-5.76 4.59-2.249 7.12-3.315 8.422-3.551.771-.14 2.95-.139 3.624.002.69.144 1.804.664 3.265 1.524 1.527.898 2.395 1.328 4.282 2.118 11.739 4.917 17.876 12.112 19.285 22.608.213 1.586.29 5.349.154 7.435a61.696 61.696 0 0 1-.401 3.75c-.16 1.126-.398 3.034-.53 4.24-.47 4.271-.72 4.996-2.145 6.202-1.649 1.396-5.663 3.783-10.276 6.11-4.224 2.13-5.96 2.724-9.106 3.118-1.8.226-4.419.522-6.086.689-1.473.147-5.846.268-6.525.18zm10.727-6.022c3.274-.436 6-1.647 8.006-3.556 1.047-.995 2.4-2.724 2.4-3.066 0-.222-.263-.297-1.851-.526-3.765-.542-3.752-.542-14.705-.539-10.727.004-10.884.01-11.907.448-.605.26-1.274 1.002-1.8 1.996-.228.43-.414.83-.414.89 0 .321 4.15 2.02 7.012 2.872 2.494.742 5.545 1.387 7.352 1.554 1.1.101 4.953.054 5.907-.073zm18.156-6.389c.179-.11.458-.37.622-.576 1.105-1.394.638-2.832-1.139-3.507l-.484-.184-.672.511c-1.383 1.051-1.717 2.37-.837 3.312.595.637 1.841.858 2.51.444zM30.3 68.616c.446-.203 1.033-.9 1.21-1.436.062-.188.096-.67.076-1.073-.036-.713-.047-.741-.438-1.105-.52-.485-1.015-.613-2.175-.563-1.072.047-1.402.183-1.784.734-.525.759-.294 1.703.662 2.698.85.885 1.622 1.12 2.449.745zm35.874-5.16c0-.099-1.858-3.383-8.421-14.888l-4.572-8.013-1.358-.887c-.748-.488-1.427-.892-1.51-.898-.234-.017-1.07 1.487-8.807 15.838l-4.817 8.935H51.43c8.632 0 14.743-.036 14.743-.087zm-32.737-3.954c.713-1.172 8.512-14.237 10.295-17.247 2.453-4.142 2.926-5.254 2.847-6.693-.051-.941-.27-1.44-.852-1.938-1.08-.925-2.938-.744-5.604.546-3.495 1.69-6.922 4.485-8.855 7.218-.9 1.276-1.869 3.2-2.344 4.662-.62 1.907-1.026 4.811-1.02 7.298.005 1.693.343 5.973.491 6.213.1.16 3.528.866 4.077.839l.432-.022zm38.076.481a66.954 66.954 0 0 0 2.05-.843l.913-.4-.054-.593c-.064-.705-.664-5.691-.95-7.897-.42-3.224-.926-5.079-1.895-6.943-.762-1.464-1.48-2.412-3.066-4.045-1.678-1.728-2.947-2.817-4.51-3.87-3.513-2.365-6.194-2.782-7.22-1.12-.255.411-.302.591-.33 1.275-.066 1.531.317 2.481 2.472 6.147 2.205 3.75 10.636 17.828 10.97 18.32.156.227.328.413.383.413.055 0 .612-.2 1.237-.444z" />
    <path fill="#fff" d="M42.411 60.391c0-.06 4.3-9.255 5.914-12.648.835-1.754 1.57-3.19 1.635-3.19.266 0 2.495 1.593 3.325 2.375 2.868 2.703 5.187 6.794 6.804 12.002.24.773.436 1.425.436 1.45 0 .026-4.076.047-9.057.047-4.981 0-9.057-.016-9.057-.036z" />
    <path fill="#21cbde" d="M37.055 63.394c0-.05 9.796-18.255 12.046-22.388.582-1.067 1.106-1.956 1.165-1.976.06-.02.716.371 1.459.869l1.35.905 3.832 6.72c2.109 3.695 4.99 8.757 6.404 11.248l2.57 4.528-7.28.059c-9.87.08-21.546.099-21.546.035zm23.618-2.97c.117-.19-1.122-3.9-1.885-5.645-2.11-4.825-4.704-8.048-8.104-10.07-.43-.256-.838-.444-.907-.418-.07.027-1.554 3.11-3.3 6.85-4.118 8.826-4.278 9.18-4.21 9.29.083.134 18.323.127 18.406-.007zM70.075 59.922c-.979-1.578-9.85-16.448-11.684-19.583-2.005-3.427-2.302-5.207-1.064-6.363.178-.167.474-.353.656-.414 2.438-.813 8.569 3.126 12.038 7.735 1.957 2.6 2.774 4.911 3.305 9.343.083.696.327 2.704.54 4.46.215 1.758.39 3.277.39 3.377 0 .144-.354.321-1.738.87-2.128.844-2.257.875-2.443.575zm1.394-4.048c.169-.571.3-2.497.294-4.309-.006-1.707-.046-2.308-.219-3.252-.4-2.188-1.138-4.018-2.37-5.874-.909-1.368-2.952-3.428-4.683-4.719-1.764-1.317-6.01-3.816-6.184-3.641-.092.092.232 1.588.58 2.677 1.616 5.063 6.346 13.024 10.219 17.2.738.797 2.128 2.089 2.246 2.089.036 0 .09-.077.117-.17zM30.595 59.906c-1.304-.272-1.959-.452-2.013-.552-.358-.651-.58-7.34-.31-9.347.617-4.597 2.384-8.222 5.38-11.04 1.885-1.774 4.16-3.39 6.288-4.468 1.689-.855 2.591-1.152 3.7-1.216.805-.047.94-.028 1.423.193.865.396 1.34 1.184 1.34 2.223 0 1.392-.46 2.41-3.085 6.82L37.104 52.96c-2.41 4.05-4.427 7.36-4.48 7.357a85.214 85.214 0 0 1-2.03-.41zm-.326-1.369c1.594-1.05 3.82-3.678 6.155-7.264 2.799-4.3 5.897-10.092 7.363-13.765.362-.907.961-2.87.961-3.148 0-.207-.313-.154-1.432.247-8.612 3.08-12.521 7.692-13.508 15.936-.246 2.054-.546 8.52-.395 8.52.03 0 .416-.236.856-.526z" />
    <path fill="#21cbde" d="M45.361 82.87c-3.78-.486-6.364-1.513-11.617-4.618-2.862-1.692-4.733-2.699-6.233-3.354-1.792-.783-1.631-.788-2.33.064-1.384 1.686-3.044 2.442-5.363 2.442-2.169 0-3.817-.71-4.552-1.961-.245-.416-.269-.543-.269-1.43 0-1.09.121-1.56.73-2.825.506-1.056 1.094-1.93 2.654-3.951 2.129-2.758 2.528-3.453 2.872-5.008.237-1.07.192-3.076-.115-5.113-.447-2.972-.47-3.273-.41-5.259.06-2.021.207-3.193.614-4.918 1.084-4.602 3.07-8.805 5.866-12.416.352-.455 1.32-1.508 2.152-2.339 1.73-1.73 1.317-1.46 7.792-5.111 6.122-3.453 6.441-3.669 7.186-4.848.54-.856.801-1.39 1.878-3.843.523-1.191 1.152-2.469 1.398-2.84 1.39-2.09 3.595-3.013 5.31-2.222.622.287 1.63 1.343 2.23 2.335.28.462 1.01 1.877 1.623 3.143 1.85 3.817 2.295 4.45 3.845 5.476.402.265 2.286 1.394 4.187 2.507 5.527 3.237 6.199 3.713 8.577 6.084 2.772 2.764 4.56 5.365 5.985 8.707 1.112 2.607 2.18 6.596 2.585 9.652.154 1.162.063 4.743-.152 5.99-.294 1.707-.44 3.148-.44 4.356 0 1.74.03 1.807 2.144 5.09 2.806 4.356 3.603 6.055 3.603 7.684 0 1.547-.642 2.25-2.516 2.754-.591.16-1.041.202-2.159.203-1.588.002-2.266-.114-4.136-.707-1.712-.542-3.31-.877-4.185-.877-1.006 0-1.164.067-6.531 2.786-5.565 2.82-6.261 3.063-10.565 3.692-5.13.75-9.23.988-11.658.676zm4.51-1.606c3.253-.261 9.242-.969 10.326-1.22 1.97-.457 3.732-1.185 7.388-3.052 5.228-2.67 9.537-5.358 10.463-6.527.768-.97 1.115-2.398 1.47-6.045.06-.616.259-2.207.442-3.536.434-3.136.567-5.31.494-8.102-.066-2.542-.165-3.573-.51-5.307-1.12-5.616-3.76-10.368-7.81-14.057-2.958-2.695-6.24-4.684-11.22-6.799-1.934-.82-2.709-1.206-4.382-2.18-2.43-1.412-3.018-1.603-4.914-1.6-2.522.003-3.167.19-7.405 2.14-6.119 2.814-9.82 4.91-12.66 7.17-6.724 5.35-9.55 12.182-9.261 22.386.103 3.642.58 11.088.793 12.368.469 2.822 1.71 4.596 4.377 6.254.712.442 4.31 2.475 7.986 4.512 3.906 2.165 6.555 3.19 9.165 3.545 1.188.161 3.585.184 5.258.05z" />
    <path fill="#21cbde" d="M28.923 68.429c-.854-.404-1.799-1.676-1.8-2.423-.001-.322.064-.486.305-.76.467-.531.739-.631 1.71-.63.702 0 .948.043 1.366.238.675.314.902.686.902 1.478.001 1.511-1.336 2.64-2.483 2.097zM72.26 68.543c-.395-.208-.721-.514-.886-.832-.181-.347-.174-.99.014-1.354.217-.418.79-1.029 1.288-1.371l.427-.294.445.17c.503.192 1.138.724 1.347 1.128.394.762-.139 2.066-1.03 2.521-.46.234-1.195.249-1.606.032zM49.338 74.885c-2.657-.334-6.111-1.194-8.98-2.236-1.464-.531-4.339-1.744-4.507-1.901-.111-.104.661-1.461 1.143-2.011.533-.608 1.161-.898 2.236-1.03 1.353-.167 19.834-.163 21.635.005 1.51.14 4.756.586 5.041.691.168.062.155.109-.166.586-.59.876-1.611 2.043-2.331 2.663-1.869 1.608-3.976 2.583-6.701 3.1-1.445.275-5.646.35-7.37.133zm4.71-1.512c1.538-.133 3.516-.572 5.527-1.225l1.631-.53-.001-.458c-.001-.252-.04-.518-.085-.59-.101-.16-2.538-.296-20.389-1.147-.776-.037-1.339-.027-1.339.024 0 .15 1.94 1.563 2.824 2.058 1.462.818 4.345 1.713 6.135 1.904.772.083 4.61.059 5.697-.036z" />
    <ellipse  fill="#21cbde" cx="51.561" cy="29.486" rx="5.362" ry="4.63"/>
    <path fill="#fff" d="m51.631 14.772 1.604 2.778 1.604 2.778h-6.416l1.604-2.778z" transform="matrix(1.1973 0 0 1.24535 -10.236 -4.014)"/>
    <path fill="#fff" d="m83.082 73.929-4.118-1.103-4.118-1.104 3.014-3.015 3.015-3.014 1.103 4.118z" transform="translate(1.826 1.899)"/>
    <path fill="#fff"  d="m15.672 76.1 1.236-4.613 1.236-4.614 3.377 3.378 3.378 3.377-4.614 1.236z" transform="matrix(.752 0 0 .752 5.104 18.045)"/>
</svg>
